<svg width="164" height="176" viewBox="0 0 164 176" fill="none" xmlns="http://www.w3.org/2000/svg">
<path d="M157.387 111.541C157.038 111.191 156.784 110.781 156.643 110.34C156.503 109.899 156.479 109.437 156.573 108.987C156.668 108.537 156.879 108.111 157.19 107.737C157.502 107.363 157.908 107.051 158.378 106.823L155.91 95.9155L162.24 98.1351L163.613 108.153C164.016 108.843 164.103 109.634 163.859 110.375C163.615 111.116 163.056 111.756 162.289 112.174C161.521 112.591 160.598 112.758 159.695 112.641C158.791 112.524 157.97 112.133 157.387 111.541V111.541Z" fill="#FFB7B7"/>
<path d="M155.919 0H0V60.5291H155.919V0Z" fill="#E6E6E6"/>
<path d="M155.919 0H0V6.51852H155.919V0Z" fill="#DA251C"/>
<path d="M152.454 8.38086H3.46484V56.8041H152.454V8.38086Z" fill="white"/>
<path d="M78.507 19.5554C78.1949 19.5854 77.9084 19.6963 77.7008 19.8676C77.4933 20.0389 77.3789 20.2589 77.3789 20.4866C77.3789 20.7144 77.4933 20.9344 77.7008 21.1057C77.9084 21.277 78.1949 21.3879 78.507 21.4179H131.689C132.001 21.3879 132.287 21.277 132.495 21.1057C132.702 20.9344 132.817 20.7144 132.817 20.4866C132.817 20.2589 132.702 20.0389 132.495 19.8676C132.287 19.6963 132.001 19.5854 131.689 19.5554H78.507Z" fill="#E6E6E6"/>
<path d="M78.507 41.9045C78.1949 41.9495 77.9084 42.1159 77.7008 42.3728C77.4933 42.6298 77.3789 42.9598 77.3789 43.3014C77.3789 43.643 77.4933 43.973 77.7008 44.2299C77.9084 44.4869 78.1949 44.6533 78.507 44.6982H131.689C132.001 44.6533 132.287 44.4869 132.495 44.2299C132.702 43.973 132.817 43.643 132.817 43.3014C132.817 42.9598 132.702 42.6298 132.495 42.3728C132.287 42.1159 132.001 41.9495 131.689 41.9045H78.507Z" fill="#E6E6E6"/>
<path d="M78.5191 25.1431C78.2036 25.173 77.914 25.2839 77.7043 25.4552C77.4945 25.6265 77.3789 25.8465 77.3789 26.0743C77.3789 26.302 77.4945 26.522 77.7043 26.6933C77.914 26.8646 78.2036 26.9756 78.5191 27.0055H101.648C101.963 26.9756 102.253 26.8646 102.463 26.6933C102.672 26.522 102.788 26.302 102.788 26.0743C102.788 25.8465 102.672 25.6265 102.463 25.4552C102.253 25.2839 101.963 25.173 101.648 25.1431H78.5191Z" fill="#E6E6E6"/>
<path d="M78.507 29.7991C78.1948 29.844 77.9083 30.0104 77.7008 30.2674C77.4933 30.5243 77.3789 30.8543 77.3789 31.1959C77.3789 31.5375 77.4933 31.8675 77.7008 32.1244C77.9083 32.3814 78.1948 32.5478 78.507 32.5927H131.689C132.001 32.5478 132.287 32.3814 132.495 32.1244C132.702 31.8675 132.817 31.5375 132.817 31.1959C132.817 30.8543 132.702 30.5243 132.495 30.2674C132.287 30.0104 132.001 29.844 131.689 29.7991H78.507Z" fill="#E6E6E6"/>
<path d="M78.5191 36.3176C78.2036 36.3476 77.914 36.4585 77.7043 36.6298C77.4945 36.8011 77.3789 37.0211 77.3789 37.2488C77.3789 37.4766 77.4945 37.6966 77.7043 37.8679C77.914 38.0392 78.2036 38.1501 78.5191 38.1801H101.648C101.963 38.1501 102.253 38.0392 102.463 37.8679C102.672 37.6966 102.788 37.4766 102.788 37.2488C102.788 37.0211 102.672 36.8011 102.463 36.6298C102.253 36.4585 101.963 36.3476 101.648 36.3176H78.5191Z" fill="#E6E6E6"/>
<path d="M117.07 109.805C117.519 109.494 117.845 109.13 118.026 108.737C118.207 108.345 118.237 107.935 118.116 107.535C117.994 107.135 117.724 106.756 117.323 106.423C116.922 106.091 116.401 105.814 115.796 105.611L118.969 95.9155L110.83 97.8885L109.065 106.793C108.547 107.407 108.435 108.11 108.749 108.768C109.063 109.427 109.781 109.996 110.768 110.367C111.755 110.739 112.941 110.886 114.103 110.783C115.264 110.679 116.32 110.331 117.07 109.805V109.805Z" fill="#FFB7B7"/>
<path d="M150.137 171.344L143.876 171.344L140.898 156.444L150.138 156.445L150.137 171.344Z" fill="#FFB7B7"/>
<path d="M150.14 176L132.816 175.999V175.824C132.817 174.388 133.527 173.012 134.792 171.998C136.056 170.983 137.771 170.413 139.559 170.413H139.56L150.141 170.413L150.14 176Z" fill="#2F2E41"/>
<path d="M118.965 171.344L112.705 171.344L109.727 156.444L118.966 156.445L118.965 171.344Z" fill="#FFB7B7"/>
<path d="M118.956 176L100.477 175.999V175.824C100.477 174.388 101.235 173.012 102.583 171.998C103.932 170.983 105.762 170.413 107.669 170.413H107.67L118.956 170.413L118.956 176Z" fill="#2F2E41"/>
<path d="M117.64 104.296L112.037 113.681L107.414 167.619L119.089 167.28L122.277 141.567L132.113 118.666L137.768 144.197L140.103 166.601L149.762 166.905L153.612 104.296H117.64Z" fill="#2F2E41"/>
<path d="M145.084 58.6665L129.017 58.9592L119.584 62.4863L119.067 88.5084L113.184 106.474C113.184 106.474 149.941 108.317 155.023 105.625L149.017 85.1004L157.072 62.9188L145.084 58.6665Z" fill="#DA251C"/>
<path d="M121.694 62.8026L119.978 62.3918C119.978 62.3918 114.533 64.9613 115.051 71.1734C115.051 71.1734 114.847 74.3879 115.042 76.5273C115.265 78.9811 108.574 103.365 108.574 103.365H118.276L122.434 81.2834L121.694 62.8026Z" fill="#DA251C"/>
<path d="M154.576 62.8026L156.293 62.3918C156.293 62.3918 161.737 64.9613 161.219 71.1734C161.219 71.1734 161.423 74.3879 161.228 76.5273C161.005 78.9811 164 103.365 164 103.365H154.298L150.141 81.2834L154.576 62.8026Z" fill="#DA251C"/>
<path d="M150.138 47.9578C150.138 49.5233 149.461 51.0537 148.192 52.3554C146.923 53.657 145.119 54.6716 143.008 55.2706C140.898 55.8697 138.576 56.0265 136.335 55.7211C134.095 55.4157 132.037 54.6618 130.422 53.5548C128.807 52.4479 127.707 51.0375 127.261 49.5021C126.815 47.9666 127.044 46.3751 127.918 44.9288C128.792 43.4824 130.273 42.2462 132.172 41.3765C134.071 40.5067 136.304 40.0425 138.589 40.0425V40.0425C140.102 40.0399 141.6 40.2416 143 40.636C144.399 41.0304 145.671 41.6098 146.743 42.3411C147.816 43.0725 148.668 43.9414 149.25 44.8984C149.833 45.8553 150.134 46.8815 150.138 47.9184C150.138 47.9315 150.138 47.9447 150.138 47.9578Z" fill="#FFB7B7"/>
<path d="M127.502 36.712C128.764 34.6148 131.207 35.0295 133.344 35.7404C136.05 35.2767 138.623 33.8886 141.539 34.7095C144.41 37.9362 154.052 36.9868 152.001 42.2399C151.998 43.4986 155.067 42.766 154.531 44.8275C156.157 48.7949 148.663 56.3085 144.362 54.7262C145.425 53.22 147.856 49.7987 144.17 49.4594C136.24 55.1591 143.352 38.606 133.389 43.4199C130.09 45.7521 125.573 39.0448 127.502 36.712Z" fill="#2F2E41"/>
</svg>
