<svg width="180" height="176" viewBox="0 0 180 176" fill="none" xmlns="http://www.w3.org/2000/svg">
<path d="M40.1573 170.81L45.21 170.809L46.1477 150.045L40.1562 150.156L40.1573 170.81Z" fill="#FFB6B6"/>
<path d="M38.8633 169.061L48.8138 169.061H48.8142C50.496 169.061 52.1088 169.769 53.298 171.029C54.4872 172.29 55.1554 173.999 55.1555 175.781V175.999L38.8636 176L38.8633 169.061Z" fill="#2F2E41"/>
<path d="M19.7316 170.81L24.7843 170.809L25.7857 150.045L19.7305 150.156L19.7316 170.81Z" fill="#FFB6B6"/>
<path d="M18.4336 169.061L28.3841 169.061H28.3845C30.0663 169.061 31.6792 169.769 32.8684 171.029C34.0575 172.29 34.7257 173.999 34.7258 175.781V175.999L18.4339 176L18.4336 169.061Z" fill="#2F2E41"/>
<path d="M68.9523 81.8529C68.9322 81.2327 68.7841 80.6246 68.5183 80.0716C68.2525 79.5186 67.8755 79.0341 67.4139 78.6522C66.9523 78.2703 66.4173 78.0003 65.8466 77.8612C65.2759 77.7221 64.6833 77.7174 64.1107 77.8472L56.7334 64.9456L53.5625 72.0281L61.0542 83.1939C61.3239 84.1989 61.932 85.0642 62.7634 85.6258C63.5948 86.1875 64.5918 86.4064 65.5653 86.2411C66.5388 86.0758 67.4214 85.5378 68.0456 84.729C68.6698 83.9202 68.9925 82.8969 68.9523 81.8529H68.9523Z" fill="#FFB6B6"/>
<path d="M7.30075 95.3482C7.64501 94.8462 7.88121 94.2702 7.99271 93.661C8.10422 93.0517 8.08832 92.424 7.94613 91.822C7.80394 91.2199 7.53893 90.6583 7.16975 90.1765C6.80057 89.6948 6.33621 89.3047 5.80937 89.0337L7.4835 74.0527L0.872028 77.5688L0.295871 91.2559C-0.0750501 92.224 -0.0979859 93.3027 0.231415 94.2875C0.560816 95.2723 1.21967 96.0949 2.08312 96.5993C2.94657 97.1038 3.95462 97.255 4.91627 97.0244C5.87792 96.7938 6.72634 96.1974 7.30077 95.3482H7.30075Z" fill="#FFB6B6"/>
<path d="M43.1185 80.1724L46.6966 82.4186C46.6966 82.4186 49.6039 84.3798 48.6262 98.0214C47.6485 111.663 46.4802 166.318 46.4802 166.318H40.1379L29.8661 101.03L26.1181 167.025L19.442 166.671C19.442 166.671 5.80192 91.5356 11.704 83.3812L43.1185 80.1724Z" fill="#2F2E41"/>
<path d="M9.54688 31.8961C9.54688 31.8961 26.947 25.9681 40.9858 31.495L39.8365 60.1926L48.4962 82.5779C48.4962 82.5779 20.9659 93.8949 11.7915 84.3841L14.4672 61.9613L9.54688 31.8961Z" fill="#DA251C"/>
<path d="M36.3008 34.865L39.9471 31.4946C39.9471 31.4946 42.3793 31.4641 44.4724 35.4297C46.5656 39.3953 50.3577 52.1956 50.3577 52.1956L62.498 73.9885L57.1571 77.8797L37.9025 49.3427L36.3008 34.865Z" fill="#DA251C"/>
<path d="M10.189 33.3109L10.4377 31.5129C10.4377 31.5129 3.65802 32.0445 3.08451 38.9674C2.511 45.8904 0.414062 84.955 0.414062 84.955L7.12019 86.37L13.7914 46.2759L10.189 33.3109Z" fill="#DA251C"/>
<path d="M33.6917 21.5241L13.3515 25.7688C12.933 25.8556 12.4991 25.7629 12.145 25.5111C11.7909 25.2593 11.5455 24.869 11.4626 24.4257L9.73617 15.1345C9.12445 11.8333 9.7748 8.40974 11.5443 5.61654C13.3137 2.82334 16.0574 0.889131 19.1722 0.239137C22.287 -0.410856 25.5178 0.276585 28.1545 2.15031C30.7911 4.02404 32.6177 6.93068 33.2327 10.2312L34.9591 19.5224C35.041 19.9659 34.9536 20.4257 34.716 20.801C34.4784 21.1762 34.11 21.4363 33.6917 21.5241V21.5241Z" fill="#2F2E41"/>
<path d="M24.1968 23.1015C29.0452 23.1015 32.9756 18.9363 32.9756 13.7982C32.9756 8.66012 29.0452 4.49487 24.1968 4.49487C19.3484 4.49487 15.418 8.66012 15.418 13.7982C15.418 18.9363 19.3484 23.1015 24.1968 23.1015Z" fill="#FFB6B6"/>
<path d="M36.1843 10.5799L23.7467 13.1754L23.2675 11.3097L22.9814 13.3351L21.0663 13.7348L20.1167 10.0369L19.5497 14.0513L15.844 14.8246L15.8095 14.6387C15.3271 12.027 15.8419 9.31921 17.2411 7.1093C18.6402 4.89938 20.8094 3.36786 23.2728 2.85074L25.0263 2.4848C27.4908 1.97358 30.046 2.51921 32.1313 4.00198C34.2166 5.48475 35.6618 7.78357 36.1497 10.3941L36.1843 10.5799Z" fill="#2F2E41"/>
<path d="M25.832 24.966C25.7383 24.9855 25.6433 24.9962 25.5479 24.9982L16.1241 25.1958L13.1602 9.2447L23.1856 7.15259L22.9944 7.51107C20.3341 12.4998 24.2218 18.8778 26.7759 22.2355C26.9639 22.4813 27.0825 22.7783 27.1181 23.0923C27.1538 23.4064 27.105 23.7247 26.9774 24.0107C26.8714 24.2546 26.7123 24.4683 26.5132 24.6344C26.3141 24.8005 26.0806 24.9141 25.832 24.966V24.966Z" fill="#2F2E41"/>
<path d="M180.001 17.1414H65.6992V80.7442H180.001V17.1414Z" fill="#F2F2F2"/>
<path d="M179.931 17.043H65.6289V24.4163H179.931V17.043Z" fill="#E6E6E6"/>
<path d="M177.866 26.98H68.1133V77.5052H177.866V26.98Z" fill="white"/>
<path d="M76.4634 21.9306C77.0991 21.9306 77.6144 21.3845 77.6144 20.7109C77.6144 20.0373 77.0991 19.4912 76.4634 19.4912C75.8278 19.4912 75.3125 20.0373 75.3125 20.7109C75.3125 21.3845 75.8278 21.9306 76.4634 21.9306Z" fill="white"/>
<path d="M80.8345 21.9306C81.4702 21.9306 81.9854 21.3845 81.9854 20.7109C81.9854 20.0373 81.4702 19.4912 80.8345 19.4912C80.1989 19.4912 79.6836 20.0373 79.6836 20.7109C79.6836 21.3845 80.1989 21.9306 80.8345 21.9306Z" fill="white"/>
<path d="M72.0806 21.9306C72.7163 21.9306 73.2315 21.3845 73.2315 20.7109C73.2315 20.0373 72.7163 19.4912 72.0806 19.4912C71.445 19.4912 70.9297 20.0373 70.9297 20.7109C70.9297 21.3845 71.445 21.9306 72.0806 21.9306Z" fill="white"/>
<path d="M162.65 9.60493C162.789 9.60527 162.926 9.57661 163.054 9.52061C163.183 9.46461 163.299 9.38237 163.397 9.27857C163.495 9.17478 163.573 9.05148 163.627 8.91573C163.68 8.77998 163.707 8.63445 163.707 8.48746C163.707 8.34047 163.68 8.19491 163.627 8.05911C163.574 7.92331 163.496 7.79993 163.398 7.69603C163.3 7.59214 163.183 7.50977 163.055 7.45364C162.927 7.3975 162.79 7.36871 162.651 7.3689H141.249C141.11 7.36856 140.973 7.39721 140.844 7.45321C140.716 7.50921 140.6 7.59147 140.501 7.69526C140.403 7.79905 140.325 7.92235 140.272 8.0581C140.219 8.19385 140.191 8.33938 140.191 8.48637C140.191 8.63336 140.219 8.77892 140.272 8.91472C140.325 9.05053 140.403 9.17391 140.501 9.2778C140.599 9.38169 140.715 9.46406 140.843 9.5202C140.972 9.57633 141.109 9.60513 141.248 9.60493H162.65Z" fill="#E4E4E4"/>
<path d="M162.65 3.01779C162.929 3.01724 163.197 2.89921 163.395 2.6896C163.592 2.47999 163.703 2.19592 163.703 1.89976C163.703 1.6036 163.592 1.31954 163.395 1.10993C163.197 0.900321 162.929 0.78229 162.65 0.781741H141.249C141.11 0.781407 140.973 0.810065 140.844 0.866067C140.716 0.922069 140.6 1.00432 140.501 1.10811C140.403 1.21191 140.325 1.33521 140.272 1.47096C140.219 1.6067 140.191 1.75223 140.191 1.89922C140.191 2.04621 140.219 2.19178 140.272 2.32758C140.325 2.46338 140.403 2.58675 140.501 2.69064C140.599 2.79454 140.715 2.87692 140.843 2.93305C140.972 2.98919 141.109 3.01798 141.248 3.01779H162.65Z" fill="#E4E4E4"/>
<path d="M98.2388 44.3631C99.6738 44.3631 100.837 43.1303 100.837 41.6096C100.837 40.089 99.6738 38.8562 98.2388 38.8562C96.8039 38.8562 95.6406 40.089 95.6406 41.6096C95.6406 43.1303 96.8039 44.3631 98.2388 44.3631Z" fill="#E4E4E4"/>
<path d="M139.992 39.4669C140.224 39.4665 140.453 39.5145 140.667 39.6082C140.882 39.7019 141.076 39.8394 141.24 40.0128C141.404 40.1863 141.534 40.3922 141.623 40.619C141.711 40.8457 141.757 41.0887 141.757 41.3342C141.757 41.5796 141.711 41.8227 141.623 42.0494C141.534 42.2761 141.404 42.4821 141.24 42.6555C141.076 42.829 140.882 42.9664 140.667 43.0601C140.453 43.1538 140.224 43.2019 139.992 43.2015H112.666C112.435 43.2019 112.205 43.1538 111.991 43.0601C111.777 42.9664 111.583 42.829 111.419 42.6555C111.255 42.4821 111.125 42.2761 111.036 42.0494C110.947 41.8227 110.902 41.5796 110.902 41.3342C110.902 41.0887 110.947 40.8457 111.036 40.619C111.125 40.3922 111.255 40.1863 111.419 40.0128C111.583 39.8394 111.777 39.7019 111.991 39.6082C112.205 39.5145 112.435 39.4665 112.666 39.4669H139.992ZM139.992 39.0095H112.666C112.084 39.0095 111.527 39.2544 111.115 39.6904C110.704 40.1264 110.473 40.7176 110.473 41.3342C110.473 41.9507 110.704 42.542 111.115 42.978C111.527 43.4139 112.084 43.6589 112.666 43.6589H139.992C140.574 43.6589 141.132 43.4139 141.543 42.978C141.955 42.542 142.186 41.9507 142.186 41.3342C142.186 40.7176 141.955 40.1264 141.543 39.6904C141.132 39.2544 140.574 39.0095 139.992 39.0095V39.0095Z" fill="#E4E4E4"/>
<path d="M129.21 43.6588H108.639C108.057 43.6588 107.499 43.4139 107.088 42.978C106.676 42.542 106.445 41.9507 106.445 41.3342C106.445 40.7176 106.676 40.1264 107.088 39.6904C107.499 39.2544 108.057 39.0095 108.639 39.0095H129.21C129.792 39.0095 130.349 39.2544 130.761 39.6904C131.172 40.1264 131.403 40.7176 131.403 41.3342C131.403 41.9507 131.172 42.542 130.761 42.978C130.349 43.4139 129.792 43.6588 129.21 43.6588Z" fill="#E4E4E4"/>
<path d="M98.2388 55.7966C99.6738 55.7966 100.837 54.5639 100.837 53.0432C100.837 51.5225 99.6738 50.2898 98.2388 50.2898C96.8039 50.2898 95.6406 51.5225 95.6406 53.0432C95.6406 54.5639 96.8039 55.7966 98.2388 55.7966Z" fill="#E4E4E4"/>
<path d="M139.992 50.9007C140.224 50.9004 140.453 50.9484 140.667 51.0421C140.882 51.1358 141.076 51.2733 141.24 51.4467C141.404 51.6201 141.534 51.8261 141.623 52.0528C141.711 52.2796 141.757 52.5226 141.757 52.768C141.757 53.0135 141.711 53.2565 141.623 53.4832C141.534 53.71 141.404 53.9159 141.24 54.0894C141.076 54.2628 140.882 54.4003 140.667 54.494C140.453 54.5877 140.224 54.6357 139.992 54.6354H112.666C112.435 54.6357 112.205 54.5877 111.991 54.494C111.777 54.4003 111.583 54.2628 111.419 54.0894C111.255 53.9159 111.125 53.71 111.036 53.4832C110.947 53.2565 110.902 53.0135 110.902 52.768C110.902 52.5226 110.947 52.2796 111.036 52.0528C111.125 51.8261 111.255 51.6201 111.419 51.4467C111.583 51.2733 111.777 51.1358 111.991 51.0421C112.205 50.9484 112.435 50.9004 112.666 50.9007H139.992ZM139.992 50.4434H112.666C112.084 50.4434 111.527 50.6883 111.115 51.1242C110.704 51.5602 110.473 52.1515 110.473 52.768C110.473 53.3846 110.704 53.9759 111.115 54.4118C111.527 54.8478 112.084 55.0927 112.666 55.0927H139.992C140.574 55.0927 141.132 54.8478 141.543 54.4118C141.955 53.9759 142.186 53.3846 142.186 52.768C142.186 52.1515 141.955 51.5602 141.543 51.1242C141.132 50.6883 140.574 50.4434 139.992 50.4434V50.4434Z" fill="#E4E4E4"/>
<path d="M136.978 55.0927H108.639C108.057 55.0927 107.499 54.8478 107.088 54.4118C106.676 53.9759 106.445 53.3846 106.445 52.768C106.445 52.1515 106.676 51.5602 107.088 51.1242C107.499 50.6883 108.057 50.4434 108.639 50.4434H136.978C137.559 50.4442 138.116 50.6894 138.527 51.1253C138.938 51.5612 139.169 52.152 139.169 52.768C139.169 53.384 138.938 53.9749 138.527 54.4108C138.116 54.8466 137.559 55.0919 136.978 55.0927V55.0927Z" fill="#E4E4E4"/>
<path d="M98.2388 67.23C99.6738 67.23 100.837 65.9972 100.837 64.4766C100.837 62.9559 99.6738 61.7231 98.2388 61.7231C96.8039 61.7231 95.6406 62.9559 95.6406 64.4766C95.6406 65.9972 96.8039 67.23 98.2388 67.23Z" fill="#E4E4E4"/>
<path d="M139.992 62.334C140.46 62.334 140.908 62.5308 141.238 62.881C141.569 63.2312 141.754 63.7061 141.754 64.2014C141.754 64.6966 141.569 65.1716 141.238 65.5218C140.908 65.872 140.46 66.0687 139.992 66.0687H112.666C112.199 66.0687 111.751 65.872 111.42 65.5218C111.09 65.1716 110.904 64.6966 110.904 64.2014C110.904 63.7061 111.09 63.2312 111.42 62.881C111.751 62.5308 112.199 62.334 112.666 62.334H139.992ZM139.992 61.8767H112.666C112.084 61.8767 111.527 62.1216 111.115 62.5576C110.704 62.9935 110.473 63.5848 110.473 64.2014C110.473 64.8179 110.704 65.4092 111.115 65.8452C111.527 66.2811 112.084 66.526 112.666 66.526H139.992C140.574 66.526 141.132 66.2811 141.543 65.8452C141.955 65.4092 142.186 64.8179 142.186 64.2014C142.186 63.5848 141.955 62.9935 141.543 62.5576C141.132 62.1216 140.574 61.8767 139.992 61.8767V61.8767Z" fill="#E4E4E4"/>
<path d="M140.089 66.526H108.639C108.057 66.526 107.499 66.2811 107.088 65.8451C106.676 65.4092 106.445 64.8179 106.445 64.2014C106.445 63.5848 106.676 62.9935 107.088 62.5576C107.499 62.1216 108.057 61.8767 108.639 61.8767H140.089C140.671 61.8767 141.229 62.1216 141.641 62.5576C142.052 62.9935 142.283 63.5848 142.283 64.2014C142.283 64.8179 142.052 65.4092 141.641 65.8451C141.229 66.2811 140.671 66.526 140.089 66.526V66.526Z" fill="#E4E4E4"/>
</svg>
